<svg width="48" height="48" viewBox="0 0 48 48" xmlns="http://www.w3.org/2000/svg">
  <rect width="48" height="48" rx="14" fill="#0f172a"/>
  <path d="M12 26.2c.6 3.8 3.7 6.8 9.3 6.8 6.8 0 11.4-3.4 13-7.8 2.3.2 3.7 1 4.8 2.8 1.5-1.2 2-3.1 1.8-4.8-.3-1.7-1.5-2.9-3-3.1l-2.8-.3-.6 1.7c-.5 1.6-1.7 2.8-3.2 3.3H12z" fill="#0ea5e9"/>
  <path d="M17.1 15.5h3.3v3.4h-3.3zm4 0h3.3v3.4h-3.3zm4.1 0h3.3v3.4h-3.3zm4 0h3.3v3.4h-3.3zm-12.1 4.3h3.3v3.4h-3.3zm4 0h3.3v3.4h-3.3zm4.1 0h3.3v3.4h-3.3z" fill="#38bdf8"/>
</svg>
