<svg width="48" height="48" viewBox="0 0 48 48" xmlns="http://www.w3.org/2000/svg">
  <rect width="48" height="48" rx="14" fill="#0f172a"/>
  <circle cx="24" cy="24" r="13" fill="#ffcd45"/>
  <circle cx="20" cy="22" r="2" fill="#0f172a"/>
  <circle cx="28" cy="22" r="2" fill="#0f172a"/>
  <path d="M18 27c1.4 1.8 3.6 2.8 6 2.8s4.6-1 6-2.8" fill="none" stroke="#0f172a" stroke-width="2" stroke-linecap="round"/>
  <path d="M13.5 24.4c.4-1 1.6-1.3 2.4-.7 1.6 1.1 4.4 1.3 5.6 1.3-2 1.5-5 2.6-6.8 2.3-1-.2-1.6-1.2-1.2-2.3zm21 0c-.4-1-1.6-1.3-2.4-.7-1.6 1.1-4.4 1.3-5.6 1.3 2 1.5 5 2.6 6.8 2.3 1-.2 1.6-1.2 1.2-2.3z" fill="#ffcd45"/>
</svg>
