<svg width="48" height="48" viewBox="0 0 48 48" xmlns="http://www.w3.org/2000/svg">
  <rect width="48" height="48" rx="14" fill="#0f172a"/>
  <path d="M24.4 10c-2.3 0-3.7 1.7-3.7 3.8v3.3h7.1v1.7H18c-2.3 0-4 1.8-4 3.9v5.8c0 2.1 1.7 3.8 3.9 3.8h2.1v-4.4c0-2.1 1.5-3.9 3.8-3.9h7.3c2.2 0 3.6-1.7 3.6-3.8v-5.4c0-2.4-1.8-4.8-4.7-4.8h-5.6zm-2.1 2.6a1.2 1.2 0 1 1 0 2.4 1.2 1.2 0 0 1 0-2.4z" fill="#3776ab"/>
  <path d="M23.6 38c2.3 0 3.7-1.7 3.7-3.8v-3.3h-7.1V29h9.8c2.3 0 4-1.8 4-3.9v-5.8c0-2.1-1.7-3.8-3.9-3.8h-2.1v4.4c0 2.1-1.5 3.9-3.8 3.9h-7.3c-2.2 0-3.6 1.7-3.6 3.8v5.4c0 2.4 1.8 4.8 4.7 4.8h5.6zm2.1-2.6a1.2 1.2 0 1 1 0-2.4 1.2 1.2 0 0 1 0 2.4z" fill="#ffdf5a"/>
</svg>
