<svg width="48" height="48" viewBox="0 0 48 48" xmlns="http://www.w3.org/2000/svg">
  <rect width="48" height="48" rx="14" fill="#0f172a"/>
  <rect x="12" y="14" width="24" height="20" rx="6" fill="#1f2937" stroke="#38bdf8" stroke-width="2"/>
  <path d="M17 24c0-1.4 1.1-2.2 2.6-2.2 1 0 1.9.3 2.7.8l-.7 1.4c-.6-.3-1.2-.6-1.9-.6-.6 0-.9.2-.9.5 0 1 3.6.4 3.6 2.7 0 1.3-1 2.2-2.9 2.2-1.2 0-2.3-.4-3.1-1l.7-1.4c.7.4 1.4.7 2.2.7.7 0 1.1-.3 1.1-.7 0-1-3.4-.4-3.4-2.4zm8-.5h1.9v5.9h3.2v1.6H25z" fill="#38bdf8"/>
</svg>
